<svg width="1280" height="720" viewBox="0 0 1280 720" fill="none" xmlns="http://www.w3.org/2000/svg">
  <rect width="1280" height="720" fill="#0B1020"/>
  <rect x="32" y="32" width="1216" height="656" rx="28" fill="url(#bg)"/>
  <rect x="72" y="76" width="1136" height="72" rx="20" fill="#0F172A" fill-opacity="0.92"/>
  <text x="108" y="121" fill="#F8FAFC" font-family="Arial, sans-serif" font-size="34" font-weight="700">VoiceToSRT</text>
  <text x="345" y="121" fill="#94A3B8" font-family="Arial, sans-serif" font-size="20">Precise transcript-to-audio subtitle alignment</text>

  <rect x="72" y="176" width="470" height="456" rx="24" fill="#111827" fill-opacity="0.94" stroke="#334155"/>
  <text x="102" y="220" fill="#E2E8F0" font-family="Arial, sans-serif" font-size="24" font-weight="700">Inputs</text>

  <rect x="102" y="248" width="410" height="88" rx="18" fill="#172033"/>
  <text x="126" y="285" fill="#CBD5E1" font-family="Arial, sans-serif" font-size="18" font-weight="700">Audio File</text>
  <text x="126" y="314" fill="#94A3B8" font-family="Arial, sans-serif" font-size="16">demo_en.wav</text>

  <rect x="102" y="356" width="410" height="88" rx="18" fill="#172033"/>
  <text x="126" y="393" fill="#CBD5E1" font-family="Arial, sans-serif" font-size="18" font-weight="700">Transcript Text File</text>
  <text x="126" y="422" fill="#94A3B8" font-family="Arial, sans-serif" font-size="16">demo_en.txt</text>

  <rect x="102" y="472" width="195" height="74" rx="18" fill="#172033"/>
  <text x="126" y="505" fill="#CBD5E1" font-family="Arial, sans-serif" font-size="18" font-weight="700">Language</text>
  <text x="126" y="533" fill="#94A3B8" font-family="Arial, sans-serif" font-size="16">English (en)</text>

  <rect x="317" y="472" width="195" height="74" rx="18" fill="#172033"/>
  <text x="341" y="505" fill="#CBD5E1" font-family="Arial, sans-serif" font-size="18" font-weight="700">Model</text>
  <text x="341" y="533" fill="#94A3B8" font-family="Arial, sans-serif" font-size="16">large-v3</text>

  <rect x="102" y="570" width="410" height="42" rx="14" fill="#F97316"/>
  <text x="228" y="597" fill="#FFF7ED" font-family="Arial, sans-serif" font-size="18" font-weight="700">Generate SRT</text>

  <rect x="570" y="176" width="638" height="456" rx="24" fill="#111827" fill-opacity="0.94" stroke="#334155"/>
  <text x="600" y="220" fill="#E2E8F0" font-family="Arial, sans-serif" font-size="24" font-weight="700">Output Preview</text>
  <rect x="600" y="248" width="578" height="60" rx="16" fill="#0F172A"/>
  <text x="624" y="285" fill="#22C55E" font-family="Arial, sans-serif" font-size="18" font-weight="700">Success</text>
  <text x="712" y="285" fill="#94A3B8" font-family="Arial, sans-serif" font-size="16">SRT generated with quality-gated fallback alignment</text>

  <rect x="600" y="332" width="578" height="268" rx="18" fill="#0F172A"/>
  <text x="624" y="372" fill="#F8FAFC" font-family="Courier New, monospace" font-size="18">1</text>
  <text x="624" y="400" fill="#38BDF8" font-family="Courier New, monospace" font-size="18">00:00:00,000 --&gt; 00:00:03,120</text>
  <text x="624" y="428" fill="#E2E8F0" font-family="Courier New, monospace" font-size="18">VoiceToSRT aligns a known transcript...</text>
  <text x="624" y="472" fill="#F8FAFC" font-family="Courier New, monospace" font-size="18">2</text>
  <text x="624" y="500" fill="#38BDF8" font-family="Courier New, monospace" font-size="18">00:00:03,120 --&gt; 00:00:06,540</text>
  <text x="624" y="528" fill="#E2E8F0" font-family="Courier New, monospace" font-size="18">This short demo clip was generated locally...</text>
  <text x="624" y="572" fill="#94A3B8" font-family="Courier New, monospace" font-size="16">Exact transcript in, stable subtitle timing out.</text>

  <rect x="600" y="620" width="578" height="12" rx="6" fill="#1E293B"/>
  <rect x="600" y="620" width="94" height="12" rx="6" fill="#F97316"/>
  <rect x="708" y="620" width="120" height="12" rx="6" fill="#38BDF8"/>
  <rect x="844" y="620" width="74" height="12" rx="6" fill="#22C55E"/>
  <rect x="932" y="620" width="148" height="12" rx="6" fill="#F59E0B"/>
  <rect x="1094" y="620" width="84" height="12" rx="6" fill="#A855F7"/>

  <defs>
    <linearGradient id="bg" x1="64" y1="56" x2="1208" y2="664" gradientUnits="userSpaceOnUse">
      <stop stop-color="#101A33"/>
      <stop offset="1" stop-color="#0F172A"/>
    </linearGradient>
  </defs>
</svg>
